<?xml version="1.0" encoding="utf-8"?>
<!DOCTYPE svg PUBLIC "-//W3C//DTD SVG 1.1//EN" "http://www.w3.org/Graphics/SVG/1.1/DTD/svg11.dtd">
<svg version="1.1" id="图形" xmlns="http://www.w3.org/2000/svg" xmlns:xlink="http://www.w3.org/1999/xlink" x="0px" y="0px" width="1024px" height="1024px" viewBox="0 0 1024 1024" enable-background="new 0 0 1024 1024" xml:space="preserve">
  <path fill="#272636" d="M512.000512 747.90624c-206.407 0-375.482767-169.090093-375.482767-375.481743 0-154.071028 180.702572-359.77604 284.922215-472.273207 61.240783-66.246797 121.106242-60.896952 181.120081-2.988054C707.495998 6.283492 887.482255 216.678316 887.482255 372.424496 887.482255 578.816147 718.404442 747.90624 512.000512 747.90624zM511.550257 192.858818c-112.526843 0-202.340381 89.813538-202.340381 202.310705 0 112.527866 89.813538 202.340381 202.340381 202.340381 112.527866 0 202.340381-89.813538 202.340381-202.340381C713.891661 282.671333 624.078123 192.858818 511.550257 192.858818z" transform="translate(0, 812) scale(1, -1)"/>
</svg>
