<?xml version="1.0" encoding="utf-8"?>
<!DOCTYPE svg PUBLIC "-//W3C//DTD SVG 1.1//EN" "http://www.w3.org/Graphics/SVG/1.1/DTD/svg11.dtd">
<svg version="1.1" id="图形" xmlns="http://www.w3.org/2000/svg" xmlns:xlink="http://www.w3.org/1999/xlink" x="0px" y="0px" width="1024px" height="1024px" viewBox="0 0 1024 1024" enable-background="new 0 0 1024 1024" xml:space="preserve">
  <path fill="#272636" d="M650.727619-114.598095 512-114.45181l-138.727619-0.146286c-110.494476 0-169.74019 1.29219-207.62819 8.630857C136.387048-100.310857 97.52381-86.974476 97.52381-36.774095c0 91.014095 219.696762 128.24381 292.376381 138.069333-0.707048 3.437714-2.364952 8.899048-6.022095 17.042286-48.542476 30.598095-87.966476 75.727238-112.030476 128.341333-23.235048 16.822857-43.203048 43.129905-49.810286 66.194286-8.899048 30.98819 0.658286 64.170667 22.893714 84.260571l-0.170667 9.289143c-1.633524 83.894857-3.510857 178.980571 58.270476 241.956571 43.690667 44.544 112.030476 66.194286 208.944762 66.194286 96.938667 0 165.278476-21.650286 208.944762-66.194286 61.781333-63.000381 59.928381-158.086095 58.294857-242.005333l-0.170667-9.362286c22.211048-20.065524 31.744-53.199238 22.844952-84.138667-6.558476-22.918095-26.453333-49.152-49.639619-65.950476-24.039619-52.638476-63.439238-97.865143-111.957333-128.487619-3.657143-8.167619-5.38819-13.677714-6.144-17.042286C707.364571 91.616 926.47619 54.678857 926.47619-36.774095 926.47619-114.598095 851.407238-114.598095 650.727619-114.598095zM512-65.689905l138.727619-0.146286c188.781714 0 226.986667 4.87619 226.986667 29.037714 0 25.258667-100.400762 72.313905-263.899429 91.599238l-8.118857 0.950857-5.90019 5.656381c-9.849905 9.48419-15.067429 21.796571-15.067429 35.59619 0 12.921905 4.827429 29.013333 14.726095 49.176381l3.193905 6.509714 6.241524 3.681524c44.739048 26.624 80.774095 67.925333 101.449143 116.345905l2.974476 6.972952 6.436571 4.071619c15.555048 9.825524 31.378286 28.91581 35.254857 42.544762 4.608 15.993905-3.023238 31.890286-12.702476 37.473524l-12.409905 7.143619 0.560762 36.352c1.536 77.945905 3.120762 158.524952-44.324571 206.896762-34.03581 34.718476-90.989714 51.590095-174.153143 51.590095s-140.117333-16.871619-174.128762-51.565714c-47.445333-48.37181-45.860571-128.950857-44.348952-206.872381l0.585143-36.278857-12.409905-7.143619c-9.728-5.607619-17.383619-21.601524-12.775619-37.61981 3.949714-13.750857 19.821714-32.938667 35.425524-42.788571l6.41219-4.047238 2.998857-6.972952c20.699429-48.347429 56.758857-89.624381 101.546667-116.199619l6.241524-3.705905 3.193905-6.509714c9.825524-19.943619 14.60419-36.010667 14.60419-49.078857 0-13.994667-5.461333-26.477714-15.750095-36.035048l-5.802667-5.38819-7.850667-0.950857C246.564571 35.100952 146.285714-11.808 146.285714-36.774095c0-9.825524 0-15.750095 28.623238-21.308952 33.767619-6.558476 93.281524-7.728762 198.339048-7.728762L512-65.689905z" transform="translate(0, 812) scale(1, -1)"/>
</svg>
