<?xml version="1.0" encoding="utf-8"?>
<!DOCTYPE svg PUBLIC "-//W3C//DTD SVG 1.1//EN" "http://www.w3.org/Graphics/SVG/1.1/DTD/svg11.dtd">
<svg version="1.1" id="图形" xmlns="http://www.w3.org/2000/svg" xmlns:xlink="http://www.w3.org/1999/xlink" x="0px" y="0px" width="1024px" height="1024px" viewBox="0 0 1024 1024" enable-background="new 0 0 1024 1024" xml:space="preserve">
  <path fill="#272636" d="M380.928 744.416q26.624 0 45.568-18.944t18.944-45.568l0-256q0-26.624-18.944-45.568t-45.568-18.944l-256 0q-26.624 0-45.056 18.944t-18.432 45.568l0 256q0 26.624 18.432 45.568t45.056 18.944l256 0zM380.928 231.392q26.624 0 45.568-18.432t18.944-45.056l0-256q0-26.624-18.944-45.568t-45.568-18.944l-256 0q-26.624 0-45.056 18.944t-18.432 45.568l0 256q0 26.624 18.432 45.056t45.056 18.432l256 0zM893.952 744.416q26.624 0 45.056-18.944t18.432-45.568l0-256q0-26.624-18.432-45.568t-45.056-18.944l-256 0q-26.624 0-45.568 18.944t-18.944 45.568l0 256q0 26.624 18.944 45.568t45.568 18.944l256 0zM893.952 231.392q26.624 0 45.056-18.432t18.432-45.056l0-256q0-26.624-18.432-45.568t-45.056-18.944l-256 0q-26.624 0-45.568 18.944t-18.944 45.568l0 256q0 26.624 18.944 45.056t45.568 18.432l256 0z" transform="translate(0, 812) scale(1, -1)"/>
</svg>
