<?xml version="1.0" encoding="utf-8"?>
<!DOCTYPE svg PUBLIC "-//W3C//DTD SVG 1.1//EN" "http://www.w3.org/Graphics/SVG/1.1/DTD/svg11.dtd">
<svg version="1.1" id="图形" xmlns="http://www.w3.org/2000/svg" xmlns:xlink="http://www.w3.org/1999/xlink" x="0px" y="0px" width="1024px" height="1024px" viewBox="0 0 1024 1024" enable-background="new 0 0 1024 1024" xml:space="preserve">
  <path fill="#272636" d="M196.277147 586.083667c0-12.674671-10.264182-22.950711-22.951652-22.950711L87.253731 563.132956C74.567285 563.132956 64.300033 573.41002 64.300033 586.083667l0 86.069261C64.300033 684.827599 74.567285 695.104663 87.253731 695.104663l86.071764 0c12.68747 0 22.951652-10.276041 22.951652-22.950711L196.277147 586.083667zM959.45027 586.083667c0-12.674671-10.265205-22.950711-22.951652-22.950711L311.040523 563.132956c-12.686447 0-22.952675 10.276041-22.952675 22.950711l0 86.069261c0 12.674671 10.266228 22.950711 22.952675 22.950711l625.458095 0c12.685423 0 22.951652-10.276041 22.951652-22.950711L959.45027 586.083667zM196.277147 279.106134c0-12.674671-10.264182-22.951735-22.951652-22.951735L87.253731 256.154399C74.567285 256.154399 64.300033 266.431463 64.300033 279.106134l0 86.069261c0 12.674671 10.266228 22.951735 22.952675 22.951735l86.071764 0c12.68747 0 22.951652-10.276041 22.951652-22.951735L196.276124 279.106134zM959.45027 279.106134c0-12.674671-10.265205-22.951735-22.951652-22.951735L311.040523 256.154399c-12.686447 0-22.952675 10.277064-22.952675 22.951735l0 86.069261c0 12.674671 10.266228 22.951735 22.952675 22.951735l625.458095 0c12.685423 0 22.951652-10.276041 22.951652-22.951735L959.45027 279.106134zM196.277147-27.871399c0-12.674671-10.264182-22.951735-22.951652-22.951735L87.253731-50.823134C74.567285-50.823134 64.300033-40.54607 64.300033-27.871399l0 86.068238c0 12.675694 10.266228 22.952758 22.952675 22.952758l86.071764 0c12.68747 0 22.951652-10.277064 22.951652-22.952758L196.276124-27.871399zM959.45027-27.871399c0-12.674671-10.265205-22.951735-22.951652-22.951735L311.040523-50.823134c-12.686447 0-22.952675 10.277064-22.952675 22.951735l0 86.068238c0 12.675694 10.266228 22.952758 22.952675 22.952758l625.458095 0c12.685423 0 22.951652-10.277064 22.951652-22.952758L959.45027-27.871399z" transform="translate(0, 812) scale(1, -1)"/>
</svg>
