<?xml version="1.0" encoding="utf-8"?>
<!DOCTYPE svg PUBLIC "-//W3C//DTD SVG 1.1//EN" "http://www.w3.org/Graphics/SVG/1.1/DTD/svg11.dtd">
<svg version="1.1" id="图形" xmlns="http://www.w3.org/2000/svg" xmlns:xlink="http://www.w3.org/1999/xlink" x="0px" y="0px" width="1024px" height="1024px" viewBox="0 0 1024 1024" enable-background="new 0 0 1024 1024" xml:space="preserve">
  <path fill="#272636" d="M812.679424 752.794573 208.932079 752.794573c-83.363045 0-150.939906-67.578118-150.939906-150.935618l0-603.724051c0-83.3575 67.576861-150.929478 150.939906-150.929478l603.747345 0c83.363045 0 150.939906 67.571978 150.939906 150.929478L963.61933 601.858956C963.61933 685.216455 896.042469 752.794573 812.679424 752.794573zM780.10008 242.332602l-215.466164 0-0.002047-196.173938c0-30.420847-24.658621-55.095829-55.086885-55.095829-30.428264 0.01228-55.092001 24.674982-55.086885 55.095829L454.458101 242.332602 238.979657 242.332602c-31.840485 0-57.666748 25.825179-57.666748 57.667398-0.005117 31.854499 25.816029 57.673537 57.672888 57.673537l215.473327-0.005117L454.459124 556.272711c-0.005117 30.420847 24.658621 55.089689 55.086885 55.084573 30.428264 0 55.080745-24.657586 55.092001-55.084573l-0.002047-198.605314 215.46514-0.005117c31.845602 0.01228 57.661631-25.807782 57.666748-57.662281C837.767852 268.157781 811.956939 242.332602 780.10008 242.332602z" transform="translate(0, 812) scale(1, -1)"/>
</svg>