<?xml version="1.0" encoding="utf-8"?>
<!DOCTYPE svg PUBLIC "-//W3C//DTD SVG 1.1//EN" "http://www.w3.org/Graphics/SVG/1.1/DTD/svg11.dtd">
<svg version="1.1" id="图形" xmlns="http://www.w3.org/2000/svg" xmlns:xlink="http://www.w3.org/1999/xlink" x="0px" y="0px" width="1024px" height="1024px" viewBox="0 0 1024 1024" enable-background="new 0 0 1024 1024" xml:space="preserve">
  <path fill="#272636" d="M683.986 423.24l-173.203-173.203-173.204 173.203c0 0 0 0 0 0l-48.111-48.111c0 0 0 0 0 0l180.899-180.9c0 0 0.001 0 0.001-0.001l32.716-32.716c0.023-0.023 0.047-0.041 0.070-0.062l7.629-7.629 7.614 7.614c0.027 0.027 0.056 0.049 0.083 0.076l213.617 213.617c0 0 0 0 0 0l-48.112 48.112z" transform="translate(0, 812) scale(1, -1)"/>
</svg>
