<?xml version="1.0" encoding="utf-8"?>
<!DOCTYPE svg PUBLIC "-//W3C//DTD SVG 1.1//EN" "http://www.w3.org/Graphics/SVG/1.1/DTD/svg11.dtd">
<svg version="1.1" id="图形" xmlns="http://www.w3.org/2000/svg" xmlns:xlink="http://www.w3.org/1999/xlink" x="0px" y="0px" width="1000px" height="1024px" viewBox="0 0 1000 1024" enable-background="new 0 0 1000 1024" xml:space="preserve">
  <path fill="#272636" d="M78.8977 752.5622v-872.4794589268475h872.5132090858123V752.5621628535853H78.89774213825793zM896.8787-65.3853H133.4280063599487V698.0341328579224H896.8786882755685V-65.3852687877619zM269.7582 289.0564h218.13005115741274v-214.711425653407c0-15.0698 12.1952-27.2635 27.2656-27.2635 15.0704 0 27.2636 12.1937 27.2636 27.2635V289.05641974741127h218.13105052081826c15.0704 0 27.2646 12.1977 27.2646 27.2685 0 15.0698-12.1942 27.2635-27.2646 27.2635h-218.13105052081826V565.1142525367801c0 15.0698-12.1932 27.2645-27.2636 27.2645-15.0714 0-27.2656-12.1947-27.2656-27.2645v-221.52580550386836H269.75816404950046c-15.0704 0-27.2656-12.1937-27.2656-27.2635C242.4925 301.2541 254.6878 289.0564 269.7582 289.0564z" transform="translate(0, 812) scale(1, -1)"/>
</svg>
