<?xml version="1.0" encoding="utf-8"?>
<!DOCTYPE svg PUBLIC "-//W3C//DTD SVG 1.1//EN" "http://www.w3.org/Graphics/SVG/1.1/DTD/svg11.dtd">
<svg version="1.1" id="图形" xmlns="http://www.w3.org/2000/svg" xmlns:xlink="http://www.w3.org/1999/xlink" x="0px" y="0px" width="1024px" height="1024px" viewBox="0 0 1024 1024" enable-background="new 0 0 1024 1024" xml:space="preserve">
  <path fill="#272636" d="M143.123 602.62l194.878-1.892 47.3-342.457 348.132-1.892 49.193 196.77h98.384l-51.083-293.262-541.118 1.892-49.192 342.456h-96.493zM300.161 40.689c0 0 0 0 0 0 0-42.842 34.731-77.572 77.572-77.572 42.841 0 77.573 34.731 77.573 77.572 0 0 0 0 0 0 0 42.841-34.731 77.573-77.573 77.573-42.841 0-77.572-34.731-77.572-77.573zM667.213 40.689c0-42.842 34.731-77.572 77.573-77.572s77.572 34.731 77.572 77.572c0 42.841-34.731 77.573-77.572 77.573-42.841 0-77.573-34.731-77.573-77.573z" transform="translate(0, 812) scale(1, -1)"/>
</svg>
